# xmcd CD database file
#
# Track frame offsets:
#	150
#	9844
#	21357
#	39606
#	50054
#	59222
#	70831
#	83286
#	96293
#	109575
#	125414
#
# Disc length: 1840 seconds
#
# Revision: 0
# Processed by: cddbd v1.5.1PL0 Copyright (c) Steve Scherf et al.
# Submitted via: CDex 1.50
#
DISCID=8d072e0b
DTITLE=Frédérick De Grandpré - Un martini pour noël
DYEAR=2004
DGENRE=Noel
TTITLE0=C'est l'hiver
TTITLE1=Noël est encore là
TTITLE2=Joyeux Noël
TTITLE3=C'est Noël
TTITLE4=Promenade en traîneau
TTITLE5=Au royaume du bonhomme hiver
TTITLE6=Noël avec toi
TTITLE7=Noël blanc
TTITLE8=Toi pour Noël (Avec la participation de Maxim Roy)
TTITLE9=Vitrine de Noël
TTITLE10=Père Noël arrive ce soir
EXTD=YEAR: 2004
EXTT0=
EXTT1=
EXTT2=
EXTT3=
EXTT4=
EXTT5=
EXTT6=
EXTT7=
EXTT8=
EXTT9=
EXTT10=
PLAYORDER=
